<svg xmlns="http://www.w3.org/2000/svg" viewBox="0 0 56 64" fill="none">
  <!-- Calendar binding rings -->
  <rect x="12" y="0" width="5" height="10" rx="2.5" fill="#818CF8"/>
  <rect x="30" y="0" width="5" height="10" rx="2.5" fill="#818CF8"/>
  <!-- Main body -->
  <rect x="2" y="6" width="46" height="56" rx="10" fill="#4F46E5"/>
  <!-- Puzzle tab -->
  <circle cx="48" cy="37" r="8" fill="#4F46E5"/>
  <!-- Dark header -->
  <path d="M2 16 Q2 6 12 6 H38 Q48 6 48 16 V26 H2 Z" fill="#3730A3"/>
  <!-- Grid lines -->
  <line x1="8"  y1="36" x2="42" y2="36" stroke="rgba(255,255,255,0.38)" stroke-width="1.4"/>
  <line x1="8"  y1="47" x2="42" y2="47" stroke="rgba(255,255,255,0.38)" stroke-width="1.4"/>
  <line x1="21" y1="27" x2="21" y2="60" stroke="rgba(255,255,255,0.38)" stroke-width="1.4"/>
  <line x1="34" y1="27" x2="34" y2="60" stroke="rgba(255,255,255,0.38)" stroke-width="1.4"/>
  <!-- Highlighted cell -->
  <rect x="22" y="28" width="11" height="8" rx="2" fill="rgba(255,255,255,0.18)"/>
  <!-- Sparkle large -->
  <path d="M15 15 L16.3 18.7 L20 20 L16.3 21.3 L15 25 L13.7 21.3 L10 20 L13.7 18.7 Z" fill="white" opacity="0.72"/>
  <!-- Sparkle small -->
  <path d="M25 10 L25.7 11.8 L27.5 12.5 L25.7 13.2 L25 15 L24.3 13.2 L22.5 12.5 L24.3 11.8 Z" fill="white" opacity="0.50"/>
</svg>
